<svg id="Layer_1" data-name="Layer 1" xmlns="http://www.w3.org/2000/svg" viewBox="0 0 504.6 178.69"><defs><style>.cls-1{fill:#fff;}</style></defs><rect class="cls-1" x="379.72" width="17.13" height="35.49"/><rect class="cls-1" x="487.41" width="17.13" height="35.49"/><rect class="cls-1" x="429.89" y="11.63" width="23.86" height="23.86"/><path class="cls-1" d="M504.6,178.69a62.41,62.41,0,0,0-53.91-61.82v-10.4a62.42,62.42,0,0,0,53.85-61.78H379.72a62.41,62.41,0,0,0,53.84,61.81v10.39a62.41,62.41,0,0,0-53.78,61.8H400v-.31a41.91,41.91,0,0,1,83.82,0v.31ZM404.24,62.21,481,61.37a41.91,41.91,0,0,1-76.77.84Z" transform="translate(0 0)"/><path class="cls-1" d="M0,174.87q1.59-16.49,2.18-26.39.87-14.74,1.75-38.17.65-17.94.65-25.67V76.18q8.46.21,14.6.22,5.92,0,15.54-.33t18.07-.32a109.88,109.88,0,0,1,17,1.15A39.58,39.58,0,0,1,83.4,81.69,33.4,33.4,0,0,1,94,91.17a43.09,43.09,0,0,1,6.51,13.7A58.53,58.53,0,0,1,102.74,121,69.93,69.93,0,0,1,101,136.69a58.4,58.4,0,0,1-4.84,13.63,44.69,44.69,0,0,1-7.27,10.45,42.5,42.5,0,0,1-9.5,7.48,41.14,41.14,0,0,1-8,3.62,60.25,60.25,0,0,1-11,2.13,163.88,163.88,0,0,1-17.72.87l-29.28-.18Q9.26,174.69,0,174.87Zm31.26-21.76q4,.36,8.31.36a59.87,59.87,0,0,0,13.15-1.3,20.83,20.83,0,0,0,10.15-5.57,25.74,25.74,0,0,0,6.47-10.91A45.76,45.76,0,0,0,71.43,122a30.82,30.82,0,0,0-3.11-14.5,17.52,17.52,0,0,0-8.27-8.21Q54.88,97,46,97q-5.2,0-12.29.43Z" transform="translate(0 0)"/><path class="cls-1" d="M114.67,174.87q4.17-58.05,4.17-89.36l-.08-9.33q12.67.15,16.94.14,2,0,15.55-.14-1.31,16.26-2.1,30.8-1,20.25-1.45,37.85t-.44,30l-14.81-.14Q128.12,174.69,114.67,174.87Z" transform="translate(0 0)"/><path class="cls-1" d="M164.92,174.87q1.82-18.65,2.64-31.23t1.67-33.44q.84-20.86.84-27.66L170,76.18q17.07.15,41.28.14,22.33,0,39.4-.14l-.15,2.38c0,.57-.17,2.66-.36,6.27l-.43,7.85c-.1,1.68-.15,3.39-.15,5.12q-14-.58-23.42-.58H212.1c-2.44,0-6.23.14-11.39.33l-.88,16.63q8.53.21,19.89.22,4,0,21.55-.51-.72,9.26-1.37,22-12.51-.13-19.22-.14-10,0-22.33.5l-.86,17.57h8.31c2.45,0,7.54-.07,15.24-.21l15-.36c2.21-.05,5.92-.25,11.13-.58q-.87,10.7-1.45,22.12-17.68-.1-38.72-.1l-31.81.07Z" transform="translate(0 0)"/><path class="cls-1" d="M267,76.18q11.28.15,15.9.14,5.79,0,15.39-.14l-2.15,30.73q-.64,8.67-1,16.26c-.21,5.07-.32,8.56-.32,10.49a44.84,44.84,0,0,0,.8,9.18,14.6,14.6,0,0,0,2.89,6.26,12.53,12.53,0,0,0,5.81,3.86,23.34,23.34,0,0,0,7.77,1.3,21.71,21.71,0,0,0,6.5-.94,15.25,15.25,0,0,0,4.26-2.15,14.18,14.18,0,0,0,2.89-3,21.42,21.42,0,0,0,2.67-5.16,31.25,31.25,0,0,0,1.74-7.58q.64-4.74,1.74-21.52.93-14.3,1.44-26.17.44-11.55.8-11.54H366l-3.51,51.33c0,1-.08,1.76-.08,2.39q-.28,15-1.84,21.22a28.18,28.18,0,0,1-5.17,10.74,32.62,32.62,0,0,1-10.56,8.2A52.55,52.55,0,0,1,329,175.25a105.71,105.71,0,0,1-33.48.36A60.85,60.85,0,0,1,283,172.25a44,44,0,0,1-9.69-5.17,25.44,25.44,0,0,1-5.79-5.6,22.42,22.42,0,0,1-3.18-6.83,34.4,34.4,0,0,1-1.31-9.62c0-1.16.05-2.9.15-5.24s.31-5.7.65-10.09l.95-11.57q.36-4.55.8-13.37Z" transform="translate(0 0)"/></svg>