<svg id="Layer_1" data-name="Layer 1" xmlns="http://www.w3.org/2000/svg" viewBox="0 0 504.6 178.66"><defs><style>.cls-1{fill:#1d1d1b;}</style></defs><rect class="cls-1" x="379.72" width="17.13" height="35.49"/><rect class="cls-1" x="487.41" width="17.13" height="35.49"/><rect class="cls-1" x="429.89" y="11.63" width="23.86" height="23.86"/><path class="cls-1" d="M659.26,387a62.41,62.41,0,0,0-53.91-61.82V314.78A62.42,62.42,0,0,0,659.2,253H534.38a62.41,62.41,0,0,0,53.84,61.81v10.39A62.41,62.41,0,0,0,534.44,387h20.2v-.31a41.91,41.91,0,0,1,83.82,0c0,.11,0,.2,0,.31ZM558.9,270.52l76.77-.84a41.91,41.91,0,0,1-76.77.84Z" transform="translate(-154.66 -208.31)"/><path class="cls-1" d="M154.66,383.18q1.59-16.49,2.18-26.39.87-14.75,1.75-38.17.65-17.94.65-25.67v-8.46q8.46.21,14.6.22,5.92,0,15.54-.33t18.07-.32a110.05,110.05,0,0,1,17,1.15A39.64,39.64,0,0,1,238.06,290a33.42,33.42,0,0,1,10.59,9.48,43.14,43.14,0,0,1,6.51,13.7,58.66,58.66,0,0,1,2.24,16.16A69.81,69.81,0,0,1,255.66,345a58.36,58.36,0,0,1-4.84,13.63,44.47,44.47,0,0,1-7.27,10.45,42.35,42.35,0,0,1-9.5,7.48,41.33,41.33,0,0,1-8,3.62A60.38,60.38,0,0,1,215,382.31a161.5,161.5,0,0,1-17.72.87L168,383Q163.92,383,154.66,383.18Zm31.26-21.76q4,.36,8.31.36a60.07,60.07,0,0,0,13.15-1.3,20.87,20.87,0,0,0,10.15-5.57A25.75,25.75,0,0,0,224,344a45.8,45.8,0,0,0,2.09-13.7q0-8.61-3.11-14.5a17.52,17.52,0,0,0-8.27-8.21q-5.18-2.31-14.07-2.31-5.2,0-12.29.43Z" transform="translate(-154.66 -208.31)"/><path class="cls-1" d="M269.33,383.18q4.17-58.05,4.17-89.36l-.08-9.33q12.68.15,16.94.14,2,0,15.55-.14-1.31,16.26-2.1,30.8-1,20.25-1.45,37.85t-.44,30L287.11,383Q282.78,383,269.33,383.18Z" transform="translate(-154.66 -208.31)"/><path class="cls-1" d="M319.58,383.18q1.82-18.65,2.64-31.23t1.67-33.44q.84-20.86.84-27.66l-.08-6.36q17.07.15,41.28.14,22.33,0,39.4-.14l-.15,2.38c0,.57-.17,2.66-.36,6.27l-.43,7.85c-.1,1.68-.15,3.39-.15,5.12q-14-.58-23.42-.58-10.41,0-14.06,0c-2.44,0-6.23.14-11.39.33l-.88,16.63q8.53.21,19.89.22,4,0,21.55-.51-.72,9.25-1.37,22-12.51-.13-19.22-.14-10,0-22.33.5l-.86,17.57h8.31c2.45,0,7.54-.07,15.24-.21l15-.36c2.21-.05,5.92-.25,11.13-.58q-.87,10.69-1.45,22.12Q382.7,383,361.66,383l-31.81.07Z" transform="translate(-154.66 -208.31)"/><path class="cls-1" d="M421.61,284.49q11.28.15,15.9.14,5.79,0,15.39-.14l-2.15,30.73q-.64,8.67-1,16.26c-.21,5.07-.32,8.56-.32,10.49a44.5,44.5,0,0,0,.8,9.18,14.6,14.6,0,0,0,2.89,6.26,12.59,12.59,0,0,0,5.81,3.86,23.3,23.3,0,0,0,7.77,1.3,21.73,21.73,0,0,0,6.5-.94,15.23,15.23,0,0,0,4.26-2.15,14.28,14.28,0,0,0,2.89-3,21.23,21.23,0,0,0,2.67-5.16,31.44,31.44,0,0,0,1.74-7.58q.65-4.74,1.74-21.52.93-14.29,1.44-26.17.43-11.55.8-11.54h31.88l-3.51,51.33c0,1-.08,1.76-.08,2.39q-.28,15-1.84,21.22a28.12,28.12,0,0,1-5.17,10.74,32.62,32.62,0,0,1-10.56,8.2,52.69,52.69,0,0,1-15.77,5.17,104.27,104.27,0,0,1-17.86,1.52,102.76,102.76,0,0,1-15.62-1.16,61.22,61.22,0,0,1-12.51-3.36,44.21,44.21,0,0,1-9.69-5.17,25.27,25.27,0,0,1-5.79-5.6,22.58,22.58,0,0,1-3.18-6.83,34.3,34.3,0,0,1-1.31-9.62c0-1.16.05-2.9.15-5.24s.31-5.7.65-10.09l.95-11.57q.36-4.55.8-13.37Z" transform="translate(-154.66 -208.31)"/></svg>